<svg width="191" height="65" viewBox="0 0 191 65" fill="none" xmlns="http://www.w3.org/2000/svg">
<path d="M68.0195 40.5H59.7969V26.2227H68.0195V28.7031H62.8242V31.8379H67.6582V34.3184H62.8242V38H68.0195V40.5ZM73.0098 34.9238L69.4941 29.582H72.873L74.9922 33.0586L77.1309 29.582H80.5098L76.9551 34.9238L80.6758 40.5H77.2871L74.9922 36.7598L72.6875 40.5H69.3086L73.0098 34.9238ZM88.4102 29.377C89.6406 29.377 90.6335 29.8555 91.3887 30.8125C92.1504 31.7695 92.5312 33.1725 92.5312 35.0215C92.5312 36.2585 92.3522 37.3001 91.9941 38.1465C91.6361 38.9863 91.1413 39.6211 90.5098 40.0508C89.8783 40.4805 89.1523 40.6953 88.332 40.6953C87.8047 40.6953 87.3522 40.6302 86.9746 40.5C86.597 40.3633 86.2747 40.1908 86.0078 39.9824C85.7409 39.7676 85.5098 39.5397 85.3145 39.2988H85.1582C85.2103 39.5592 85.2493 39.8262 85.2754 40.0996C85.3014 40.373 85.3145 40.64 85.3145 40.9004V45.3047H82.3359V29.582H84.7578L85.1777 30.998H85.3145C85.5098 30.7051 85.7474 30.4349 86.0273 30.1875C86.3073 29.9401 86.6426 29.7448 87.0332 29.6016C87.4303 29.4518 87.8893 29.377 88.4102 29.377ZM87.4531 31.7598C86.9323 31.7598 86.5189 31.8672 86.2129 32.082C85.9069 32.2969 85.6823 32.6191 85.5391 33.0488C85.4023 33.4785 85.3275 34.0221 85.3145 34.6797V35.002C85.3145 35.7051 85.3796 36.3008 85.5098 36.7891C85.6465 37.2773 85.8711 37.6484 86.1836 37.9023C86.5026 38.1562 86.9388 38.2832 87.4922 38.2832C87.9479 38.2832 88.3223 38.1562 88.6152 37.9023C88.9082 37.6484 89.1263 37.2773 89.2695 36.7891C89.4193 36.2943 89.4941 35.6921 89.4941 34.9824C89.4941 33.9147 89.3281 33.1107 88.9961 32.5703C88.6641 32.0299 88.1497 31.7598 87.4531 31.7598ZM97.9707 40.5H94.9922V25.3047H97.9707V40.5ZM111.027 35.0215C111.027 35.9329 110.904 36.7402 110.656 37.4434C110.415 38.1465 110.061 38.7422 109.592 39.2305C109.13 39.7122 108.57 40.0768 107.912 40.3242C107.261 40.5716 106.525 40.6953 105.705 40.6953C104.937 40.6953 104.23 40.5716 103.586 40.3242C102.948 40.0768 102.391 39.7122 101.916 39.2305C101.447 38.7422 101.083 38.1465 100.822 37.4434C100.568 36.7402 100.441 35.9329 100.441 35.0215C100.441 33.8105 100.656 32.7852 101.086 31.9453C101.516 31.1055 102.128 30.4674 102.922 30.0312C103.716 29.5951 104.663 29.377 105.764 29.377C106.786 29.377 107.691 29.5951 108.479 30.0312C109.273 30.4674 109.895 31.1055 110.344 31.9453C110.799 32.7852 111.027 33.8105 111.027 35.0215ZM103.479 35.0215C103.479 35.7376 103.557 36.3398 103.713 36.8281C103.869 37.3164 104.113 37.6842 104.445 37.9316C104.777 38.179 105.21 38.3027 105.744 38.3027C106.271 38.3027 106.698 38.179 107.023 37.9316C107.355 37.6842 107.596 37.3164 107.746 36.8281C107.902 36.3398 107.98 35.7376 107.98 35.0215C107.98 34.2988 107.902 33.6999 107.746 33.2246C107.596 32.7428 107.355 32.3815 107.023 32.1406C106.691 31.8997 106.258 31.7793 105.725 31.7793C104.937 31.7793 104.364 32.0495 104.006 32.5898C103.654 33.1302 103.479 33.9408 103.479 35.0215ZM119.582 29.377C119.732 29.377 119.904 29.3867 120.1 29.4062C120.301 29.4193 120.464 29.4388 120.588 29.4648L120.363 32.2578C120.266 32.2253 120.126 32.2025 119.943 32.1895C119.768 32.1699 119.615 32.1602 119.484 32.1602C119.1 32.1602 118.726 32.209 118.361 32.3066C118.003 32.4043 117.681 32.5638 117.395 32.7852C117.108 33 116.88 33.2865 116.711 33.6445C116.548 33.9961 116.467 34.429 116.467 34.9434V40.5H113.488V29.582H115.744L116.184 31.418H116.33C116.545 31.0469 116.812 30.7083 117.131 30.4023C117.456 30.0898 117.824 29.8424 118.234 29.6602C118.651 29.4714 119.1 29.377 119.582 29.377ZM127.072 29.377C128.081 29.377 128.951 29.5723 129.68 29.9629C130.409 30.347 130.972 30.9069 131.369 31.6426C131.766 32.3783 131.965 33.2767 131.965 34.3379V35.7832H124.924C124.956 36.623 125.207 37.2839 125.676 37.7656C126.151 38.2409 126.809 38.4785 127.648 38.4785C128.345 38.4785 128.983 38.4069 129.562 38.2637C130.142 38.1204 130.738 37.9056 131.35 37.6191V39.9238C130.809 40.1908 130.243 40.3861 129.65 40.5098C129.064 40.6335 128.352 40.6953 127.512 40.6953C126.418 40.6953 125.448 40.4935 124.602 40.0898C123.762 39.6862 123.101 39.071 122.619 38.2441C122.144 37.4173 121.906 36.3757 121.906 35.1191C121.906 33.8431 122.121 32.7819 122.551 31.9355C122.987 31.0827 123.592 30.4447 124.367 30.0215C125.142 29.5918 126.044 29.377 127.072 29.377ZM127.092 31.4961C126.512 31.4961 126.031 31.6816 125.646 32.0527C125.269 32.4238 125.051 33.0065 124.992 33.8008H129.172C129.165 33.3581 129.084 32.9642 128.928 32.6191C128.778 32.2741 128.55 32.0007 128.244 31.7988C127.945 31.597 127.561 31.4961 127.092 31.4961Z" fill="white"/>
<path d="M32 4.5H159V0.5H32V4.5ZM159 60.5H32V64.5H159V60.5ZM32 60.5C16.536 60.5 4 47.964 4 32.5H0C0 50.1731 14.3269 64.5 32 64.5V60.5ZM187 32.5C187 47.964 174.464 60.5 159 60.5V64.5C176.673 64.5 191 50.1731 191 32.5H187ZM159 4.5C174.464 4.5 187 17.036 187 32.5H191C191 14.8269 176.673 0.5 159 0.5V4.5ZM32 0.5C14.3269 0.5 0 14.8269 0 32.5H4C4 17.036 16.536 4.5 32 4.5V0.5Z" fill="white"/>
</svg>
