<svg width="499" height="37" viewBox="0 0 499 37" fill="none" xmlns="http://www.w3.org/2000/svg">
<path d="M10.9375 26L9.16016 21.459H3.4375L1.67969 26H0L5.64453 11.6641H7.04102L12.6562 26H10.9375ZM8.64258 19.9648L6.98242 15.541C6.76758 14.9811 6.54622 14.2943 6.31836 13.4805C6.17513 14.1055 5.97005 14.7923 5.70312 15.541L4.02344 19.9648H8.64258ZM21.6992 26V19.0762C21.6992 18.2038 21.5007 17.5527 21.1035 17.123C20.7064 16.6934 20.0846 16.4785 19.2383 16.4785C18.1185 16.4785 17.2982 16.7812 16.7773 17.3867C16.2565 17.9922 15.9961 18.9915 15.9961 20.3848V26H14.375V15.2969H15.6934L15.957 16.7617H16.0352C16.3672 16.2344 16.8327 15.8275 17.4316 15.541C18.0306 15.248 18.6979 15.1016 19.4336 15.1016C20.7227 15.1016 21.6927 15.4141 22.3438 16.0391C22.9948 16.6576 23.3203 17.6504 23.3203 19.0176V26H21.6992ZM33.9453 24.5645H33.8574C33.1087 25.6517 31.9889 26.1953 30.498 26.1953C29.0983 26.1953 28.0078 25.7168 27.2266 24.7598C26.4518 23.8027 26.0645 22.4421 26.0645 20.6777C26.0645 18.9134 26.4551 17.543 27.2363 16.5664C28.0176 15.5898 29.1048 15.1016 30.498 15.1016C31.9499 15.1016 33.0632 15.6289 33.8379 16.6836H33.9648L33.8965 15.9121L33.8574 15.1602V10.8047H35.4785V26H34.1602L33.9453 24.5645ZM30.7031 24.8379C31.8099 24.8379 32.6107 24.5384 33.1055 23.9395C33.6068 23.334 33.8574 22.3607 33.8574 21.0195V20.6777C33.8574 19.1608 33.6035 18.0801 33.0957 17.4355C32.5944 16.7845 31.7904 16.459 30.6836 16.459C29.7331 16.459 29.0039 16.8301 28.4961 17.5723C27.9948 18.3079 27.7441 19.3496 27.7441 20.6973C27.7441 22.0645 27.9948 23.0964 28.4961 23.793C28.9974 24.4896 29.7331 24.8379 30.7031 24.8379ZM43.8086 15.1016C44.2839 15.1016 44.7103 15.1406 45.0879 15.2188L44.8633 16.7227C44.4206 16.625 44.0299 16.5762 43.6914 16.5762C42.8255 16.5762 42.0833 16.9277 41.4648 17.6309C40.8529 18.334 40.5469 19.2096 40.5469 20.2578V26H38.9258V15.2969H40.2637L40.4492 17.2793H40.5273C40.9245 16.5827 41.403 16.0456 41.9629 15.668C42.5228 15.2904 43.138 15.1016 43.8086 15.1016ZM56.3281 20.6387C56.3281 22.3835 55.8887 23.7474 55.0098 24.7305C54.1309 25.707 52.9167 26.1953 51.3672 26.1953C50.4102 26.1953 49.5605 25.9707 48.8184 25.5215C48.0762 25.0723 47.5033 24.4277 47.0996 23.5879C46.696 22.748 46.4941 21.765 46.4941 20.6387C46.4941 18.8939 46.9303 17.5365 47.8027 16.5664C48.6751 15.5898 49.8861 15.1016 51.4355 15.1016C52.9329 15.1016 54.1211 15.5996 55 16.5957C55.8854 17.5918 56.3281 18.9395 56.3281 20.6387ZM48.1738 20.6387C48.1738 22.0059 48.4473 23.0475 48.9941 23.7637C49.541 24.4798 50.3451 24.8379 51.4062 24.8379C52.4674 24.8379 53.2715 24.4831 53.8184 23.7734C54.3717 23.0573 54.6484 22.0124 54.6484 20.6387C54.6484 19.278 54.3717 18.2461 53.8184 17.543C53.2715 16.8333 52.4609 16.4785 51.3867 16.4785C50.3255 16.4785 49.5247 16.8268 48.9844 17.5234C48.444 18.2201 48.1738 19.2585 48.1738 20.6387ZM60.8008 26H59.1797V15.2969H60.8008V26ZM59.043 12.3965C59.043 12.0254 59.1341 11.7552 59.3164 11.5859C59.4987 11.4102 59.7266 11.3223 60 11.3223C60.2604 11.3223 60.485 11.4102 60.6738 11.5859C60.8626 11.7617 60.957 12.0319 60.957 12.3965C60.957 12.7611 60.8626 13.0345 60.6738 13.2168C60.485 13.3926 60.2604 13.4805 60 13.4805C59.7266 13.4805 59.4987 13.3926 59.3164 13.2168C59.1341 13.0345 59.043 12.7611 59.043 12.3965ZM71.5234 24.5645H71.4355C70.6868 25.6517 69.5671 26.1953 68.0762 26.1953C66.6764 26.1953 65.5859 25.7168 64.8047 24.7598C64.0299 23.8027 63.6426 22.4421 63.6426 20.6777C63.6426 18.9134 64.0332 17.543 64.8145 16.5664C65.5957 15.5898 66.6829 15.1016 68.0762 15.1016C69.528 15.1016 70.6413 15.6289 71.416 16.6836H71.543L71.4746 15.9121L71.4355 15.1602V10.8047H73.0566V26H71.7383L71.5234 24.5645ZM68.2812 24.8379C69.388 24.8379 70.1888 24.5384 70.6836 23.9395C71.1849 23.334 71.4355 22.3607 71.4355 21.0195V20.6777C71.4355 19.1608 71.1816 18.0801 70.6738 17.4355C70.1725 16.7845 69.3685 16.459 68.2617 16.459C67.3112 16.459 66.582 16.8301 66.0742 17.5723C65.5729 18.3079 65.3223 19.3496 65.3223 20.6973C65.3223 22.0645 65.5729 23.0964 66.0742 23.793C66.5755 24.4896 67.3112 24.8379 68.2812 24.8379ZM86.582 15.1016C87.0573 15.1016 87.4837 15.1406 87.8613 15.2188L87.6367 16.7227C87.194 16.625 86.8034 16.5762 86.4648 16.5762C85.599 16.5762 84.8568 16.9277 84.2383 17.6309C83.6263 18.334 83.3203 19.2096 83.3203 20.2578V26H81.6992V15.2969H83.0371L83.2227 17.2793H83.3008C83.6979 16.5827 84.1764 16.0456 84.7363 15.668C85.2962 15.2904 85.9115 15.1016 86.582 15.1016ZM94.3848 26.1953C92.8027 26.1953 91.5527 25.7135 90.6348 24.75C89.7233 23.7865 89.2676 22.4486 89.2676 20.7363C89.2676 19.0111 89.6908 17.6406 90.5371 16.625C91.39 15.6094 92.5326 15.1016 93.9648 15.1016C95.306 15.1016 96.3672 15.5443 97.1484 16.4297C97.9297 17.3086 98.3203 18.4707 98.3203 19.916V20.9414H90.9473C90.9798 22.1979 91.2956 23.1517 91.8945 23.8027C92.5 24.4538 93.3496 24.7793 94.4434 24.7793C95.5957 24.7793 96.735 24.5384 97.8613 24.0566V25.502C97.2884 25.7493 96.7448 25.9251 96.2305 26.0293C95.7227 26.14 95.1074 26.1953 94.3848 26.1953ZM93.9453 16.459C93.0859 16.459 92.3991 16.7389 91.8848 17.2988C91.377 17.8587 91.0775 18.6335 90.9863 19.623H96.582C96.582 18.6009 96.3542 17.8197 95.8984 17.2793C95.4427 16.7324 94.7917 16.459 93.9453 16.459ZM107.998 23.0801C107.998 24.0762 107.627 24.8444 106.885 25.3848C106.143 25.9251 105.101 26.1953 103.76 26.1953C102.34 26.1953 101.234 25.9707 100.439 25.5215V24.0176C100.954 24.278 101.504 24.4831 102.09 24.6328C102.682 24.7826 103.252 24.8574 103.799 24.8574C104.645 24.8574 105.296 24.724 105.752 24.457C106.208 24.1836 106.436 23.7702 106.436 23.2168C106.436 22.8001 106.253 22.4453 105.889 22.1523C105.531 21.8529 104.827 21.5013 103.779 21.0977C102.783 20.7266 102.074 20.4043 101.65 20.1309C101.234 19.8509 100.921 19.5352 100.713 19.1836C100.511 18.832 100.41 18.4121 100.41 17.9238C100.41 17.0514 100.765 16.3646 101.475 15.8633C102.184 15.3555 103.158 15.1016 104.395 15.1016C105.547 15.1016 106.673 15.3359 107.773 15.8047L107.197 17.123C106.123 16.6803 105.15 16.459 104.277 16.459C103.509 16.459 102.93 16.5794 102.539 16.8203C102.148 17.0612 101.953 17.3932 101.953 17.8164C101.953 18.1029 102.025 18.347 102.168 18.5488C102.318 18.7507 102.555 18.9427 102.881 19.125C103.206 19.3073 103.831 19.571 104.756 19.916C106.025 20.3783 106.882 20.8438 107.324 21.3125C107.773 21.7812 107.998 22.3704 107.998 23.0801ZM115.166 26.1953C113.584 26.1953 112.334 25.7135 111.416 24.75C110.505 23.7865 110.049 22.4486 110.049 20.7363C110.049 19.0111 110.472 17.6406 111.318 16.625C112.171 15.6094 113.314 15.1016 114.746 15.1016C116.087 15.1016 117.148 15.5443 117.93 16.4297C118.711 17.3086 119.102 18.4707 119.102 19.916V20.9414H111.729C111.761 22.1979 112.077 23.1517 112.676 23.8027C113.281 24.4538 114.131 24.7793 115.225 24.7793C116.377 24.7793 117.516 24.5384 118.643 24.0566V25.502C118.07 25.7493 117.526 25.9251 117.012 26.0293C116.504 26.14 115.889 26.1953 115.166 26.1953ZM114.727 16.459C113.867 16.459 113.18 16.7389 112.666 17.2988C112.158 17.8587 111.859 18.6335 111.768 19.623H117.363C117.363 18.6009 117.135 17.8197 116.68 17.2793C116.224 16.7324 115.573 16.459 114.727 16.459ZM128.457 26L128.135 24.4766H128.057C127.523 25.1471 126.989 25.6029 126.455 25.8438C125.928 26.0781 125.267 26.1953 124.473 26.1953C123.411 26.1953 122.578 25.9219 121.973 25.375C121.374 24.8281 121.074 24.0501 121.074 23.041C121.074 20.8796 122.803 19.7467 126.26 19.6426L128.076 19.584V18.9199C128.076 18.0801 127.894 17.4616 127.529 17.0645C127.171 16.6608 126.595 16.459 125.801 16.459C124.909 16.459 123.9 16.7324 122.773 17.2793L122.275 16.0391C122.803 15.7526 123.379 15.528 124.004 15.3652C124.635 15.2025 125.267 15.1211 125.898 15.1211C127.174 15.1211 128.118 15.4043 128.73 15.9707C129.349 16.5371 129.658 17.4453 129.658 18.6953V26H128.457ZM124.795 24.8574C125.804 24.8574 126.595 24.5807 127.168 24.0273C127.747 23.474 128.037 22.6992 128.037 21.7031V20.7363L126.416 20.8047C125.127 20.8503 124.196 21.0521 123.623 21.4102C123.057 21.7617 122.773 22.3118 122.773 23.0605C122.773 23.6465 122.949 24.0924 123.301 24.3984C123.659 24.7044 124.157 24.8574 124.795 24.8574ZM137.891 15.1016C138.366 15.1016 138.792 15.1406 139.17 15.2188L138.945 16.7227C138.503 16.625 138.112 16.5762 137.773 16.5762C136.908 16.5762 136.165 16.9277 135.547 17.6309C134.935 18.334 134.629 19.2096 134.629 20.2578V26H133.008V15.2969H134.346L134.531 17.2793H134.609C135.007 16.5827 135.485 16.0456 136.045 15.668C136.605 15.2904 137.22 15.1016 137.891 15.1016ZM145.449 26.1953C143.9 26.1953 142.699 25.7201 141.846 24.7695C140.999 23.8125 140.576 22.4616 140.576 20.7168C140.576 18.9264 141.006 17.543 141.865 16.5664C142.731 15.5898 143.962 15.1016 145.557 15.1016C146.071 15.1016 146.585 15.1569 147.1 15.2676C147.614 15.3783 148.018 15.5085 148.311 15.6582L147.812 17.0352C147.454 16.8919 147.064 16.7747 146.641 16.6836C146.217 16.5859 145.843 16.5371 145.518 16.5371C143.343 16.5371 142.256 17.9238 142.256 20.6973C142.256 22.0124 142.52 23.0215 143.047 23.7246C143.581 24.4277 144.368 24.7793 145.41 24.7793C146.302 24.7793 147.217 24.5872 148.154 24.2031V25.6387C147.438 26.0098 146.536 26.1953 145.449 26.1953ZM158.027 26V19.0762C158.027 18.2038 157.829 17.5527 157.432 17.123C157.035 16.6934 156.413 16.4785 155.566 16.4785C154.44 16.4785 153.617 16.7845 153.096 17.3965C152.581 18.0085 152.324 19.0111 152.324 20.4043V26H150.703V10.8047H152.324V15.4043C152.324 15.9577 152.298 16.4167 152.246 16.7812H152.344C152.663 16.2669 153.115 15.8633 153.701 15.5703C154.294 15.2708 154.967 15.1211 155.723 15.1211C157.031 15.1211 158.011 15.4336 158.662 16.0586C159.32 16.6771 159.648 17.6634 159.648 19.0176V26H158.027ZM170.508 14.5645C170.508 15.0137 170.625 15.4434 170.859 15.8535C171.094 16.2572 171.494 16.7454 172.061 17.3184C172.9 16.8301 173.483 16.3809 173.809 15.9707C174.141 15.554 174.307 15.0755 174.307 14.5352C174.307 14.0339 174.137 13.627 173.799 13.3145C173.467 12.9954 173.021 12.8359 172.461 12.8359C171.882 12.8359 171.41 12.9922 171.045 13.3047C170.687 13.6172 170.508 14.0371 170.508 14.5645ZM172.021 24.7402C173.59 24.7402 174.893 24.2389 175.928 23.2363L171.66 19.0957C170.938 19.5384 170.426 19.9062 170.127 20.1992C169.827 20.4857 169.606 20.7949 169.463 21.127C169.32 21.459 169.248 21.8366 169.248 22.2598C169.248 23.0215 169.499 23.627 170 24.0762C170.508 24.5189 171.182 24.7402 172.021 24.7402ZM167.568 22.2988C167.568 21.4525 167.793 20.7038 168.242 20.0527C168.698 19.4017 169.512 18.7441 170.684 18.0801C170.13 17.4616 169.753 16.9928 169.551 16.6738C169.355 16.3548 169.199 16.0228 169.082 15.6777C168.965 15.3327 168.906 14.9746 168.906 14.6035C168.906 13.627 169.225 12.8652 169.863 12.3184C170.501 11.7715 171.39 11.498 172.529 11.498C173.584 11.498 174.414 11.7715 175.02 12.3184C175.625 12.8587 175.928 13.6139 175.928 14.584C175.928 15.2806 175.706 15.9251 175.264 16.5176C174.821 17.1035 174.089 17.6992 173.066 18.3047L177.041 22.123C177.406 21.7194 177.695 21.2474 177.91 20.707C178.132 20.1602 178.317 19.5645 178.467 18.9199H180.107C179.665 20.7819 178.997 22.1947 178.105 23.1582L181.025 26H178.789L176.982 24.2617C176.214 24.9518 175.433 25.4466 174.639 25.7461C173.844 26.0456 172.959 26.1953 171.982 26.1953C170.583 26.1953 169.495 25.8503 168.721 25.1602C167.952 24.4701 167.568 23.5163 167.568 22.2988ZM195.273 24.5645H195.186C194.437 25.6517 193.317 26.1953 191.826 26.1953C190.426 26.1953 189.336 25.7168 188.555 24.7598C187.78 23.8027 187.393 22.4421 187.393 20.6777C187.393 18.9134 187.783 17.543 188.564 16.5664C189.346 15.5898 190.433 15.1016 191.826 15.1016C193.278 15.1016 194.391 15.6289 195.166 16.6836H195.293L195.225 15.9121L195.186 15.1602V10.8047H196.807V26H195.488L195.273 24.5645ZM192.031 24.8379C193.138 24.8379 193.939 24.5384 194.434 23.9395C194.935 23.334 195.186 22.3607 195.186 21.0195V20.6777C195.186 19.1608 194.932 18.0801 194.424 17.4355C193.923 16.7845 193.118 16.459 192.012 16.459C191.061 16.459 190.332 16.8301 189.824 17.5723C189.323 18.3079 189.072 19.3496 189.072 20.6973C189.072 22.0645 189.323 23.0964 189.824 23.793C190.326 24.4896 191.061 24.8379 192.031 24.8379ZM204.775 26.1953C203.193 26.1953 201.943 25.7135 201.025 24.75C200.114 23.7865 199.658 22.4486 199.658 20.7363C199.658 19.0111 200.081 17.6406 200.928 16.625C201.781 15.6094 202.923 15.1016 204.355 15.1016C205.697 15.1016 206.758 15.5443 207.539 16.4297C208.32 17.3086 208.711 18.4707 208.711 19.916V20.9414H201.338C201.37 22.1979 201.686 23.1517 202.285 23.8027C202.891 24.4538 203.74 24.7793 204.834 24.7793C205.986 24.7793 207.126 24.5384 208.252 24.0566V25.502C207.679 25.7493 207.135 25.9251 206.621 26.0293C206.113 26.14 205.498 26.1953 204.775 26.1953ZM204.336 16.459C203.477 16.459 202.79 16.7389 202.275 17.2988C201.768 17.8587 201.468 18.6335 201.377 19.623H206.973C206.973 18.6009 206.745 17.8197 206.289 17.2793C205.833 16.7324 205.182 16.459 204.336 16.459ZM213.828 26L209.766 15.2969H211.504L213.809 21.6445C214.329 23.1289 214.635 24.0924 214.727 24.5352H214.805C214.876 24.1901 215.101 23.4772 215.479 22.3965C215.863 21.3092 216.719 18.9427 218.047 15.2969H219.785L215.723 26H213.828ZM226.025 26.1953C224.443 26.1953 223.193 25.7135 222.275 24.75C221.364 23.7865 220.908 22.4486 220.908 20.7363C220.908 19.0111 221.331 17.6406 222.178 16.625C223.031 15.6094 224.173 15.1016 225.605 15.1016C226.947 15.1016 228.008 15.5443 228.789 16.4297C229.57 17.3086 229.961 18.4707 229.961 19.916V20.9414H222.588C222.62 22.1979 222.936 23.1517 223.535 23.8027C224.141 24.4538 224.99 24.7793 226.084 24.7793C227.236 24.7793 228.376 24.5384 229.502 24.0566V25.502C228.929 25.7493 228.385 25.9251 227.871 26.0293C227.363 26.14 226.748 26.1953 226.025 26.1953ZM225.586 16.459C224.727 16.459 224.04 16.7389 223.525 17.2988C223.018 17.8587 222.718 18.6335 222.627 19.623H228.223C228.223 18.6009 227.995 17.8197 227.539 17.2793C227.083 16.7324 226.432 16.459 225.586 16.459ZM234.355 26H232.734V10.8047H234.355V26ZM247.031 20.6387C247.031 22.3835 246.592 23.7474 245.713 24.7305C244.834 25.707 243.62 26.1953 242.07 26.1953C241.113 26.1953 240.264 25.9707 239.521 25.5215C238.779 25.0723 238.206 24.4277 237.803 23.5879C237.399 22.748 237.197 21.765 237.197 20.6387C237.197 18.8939 237.633 17.5365 238.506 16.5664C239.378 15.5898 240.589 15.1016 242.139 15.1016C243.636 15.1016 244.824 15.5996 245.703 16.5957C246.589 17.5918 247.031 18.9395 247.031 20.6387ZM238.877 20.6387C238.877 22.0059 239.15 23.0475 239.697 23.7637C240.244 24.4798 241.048 24.8379 242.109 24.8379C243.171 24.8379 243.975 24.4831 244.521 23.7734C245.075 23.0573 245.352 22.0124 245.352 20.6387C245.352 19.278 245.075 18.2461 244.521 17.543C243.975 16.8333 243.164 16.4785 242.09 16.4785C241.029 16.4785 240.228 16.8268 239.688 17.5234C239.147 18.2201 238.877 19.2585 238.877 20.6387ZM254.863 26.1953C254.167 26.1953 253.529 26.0684 252.949 25.8145C252.376 25.554 251.895 25.1569 251.504 24.623H251.387C251.465 25.248 251.504 25.8405 251.504 26.4004V30.8047H249.883V15.2969H251.201L251.426 16.7617H251.504C251.921 16.1758 252.406 15.7526 252.959 15.4922C253.512 15.2318 254.147 15.1016 254.863 15.1016C256.283 15.1016 257.376 15.5866 258.145 16.5566C258.919 17.5267 259.307 18.8874 259.307 20.6387C259.307 22.3965 258.913 23.7637 258.125 24.7402C257.344 25.7103 256.257 26.1953 254.863 26.1953ZM254.629 16.4785C253.535 16.4785 252.744 16.7812 252.256 17.3867C251.768 17.9922 251.517 18.9557 251.504 20.2773V20.6387C251.504 22.1426 251.755 23.2201 252.256 23.8711C252.757 24.5156 253.561 24.8379 254.668 24.8379C255.592 24.8379 256.315 24.4635 256.836 23.7148C257.363 22.9661 257.627 21.9342 257.627 20.6191C257.627 19.2845 257.363 18.2624 256.836 17.5527C256.315 16.8366 255.579 16.4785 254.629 16.4785ZM275.791 26V19.0371C275.791 18.1842 275.609 17.5462 275.244 17.123C274.88 16.6934 274.313 16.4785 273.545 16.4785C272.536 16.4785 271.79 16.7682 271.309 17.3477C270.827 17.9271 270.586 18.819 270.586 20.0234V26H268.965V19.0371C268.965 18.1842 268.783 17.5462 268.418 17.123C268.053 16.6934 267.484 16.4785 266.709 16.4785C265.693 16.4785 264.948 16.7845 264.473 17.3965C264.004 18.002 263.77 18.998 263.77 20.3848V26H262.148V15.2969H263.467L263.73 16.7617H263.809C264.115 16.2409 264.544 15.834 265.098 15.541C265.658 15.248 266.283 15.1016 266.973 15.1016C268.646 15.1016 269.74 15.707 270.254 16.918H270.332C270.651 16.3581 271.113 15.9154 271.719 15.5898C272.324 15.2643 273.014 15.1016 273.789 15.1016C275 15.1016 275.905 15.4141 276.504 16.0391C277.109 16.6576 277.412 17.6504 277.412 19.0176V26H275.791ZM285.283 26.1953C283.701 26.1953 282.451 25.7135 281.533 24.75C280.622 23.7865 280.166 22.4486 280.166 20.7363C280.166 19.0111 280.589 17.6406 281.436 16.625C282.288 15.6094 283.431 15.1016 284.863 15.1016C286.204 15.1016 287.266 15.5443 288.047 16.4297C288.828 17.3086 289.219 18.4707 289.219 19.916V20.9414H281.846C281.878 22.1979 282.194 23.1517 282.793 23.8027C283.398 24.4538 284.248 24.7793 285.342 24.7793C286.494 24.7793 287.633 24.5384 288.76 24.0566V25.502C288.187 25.7493 287.643 25.9251 287.129 26.0293C286.621 26.14 286.006 26.1953 285.283 26.1953ZM284.844 16.459C283.984 16.459 283.298 16.7389 282.783 17.2988C282.275 17.8587 281.976 18.6335 281.885 19.623H287.48C287.48 18.6009 287.253 17.8197 286.797 17.2793C286.341 16.7324 285.69 16.459 284.844 16.459ZM299.316 26V19.0762C299.316 18.2038 299.118 17.5527 298.721 17.123C298.324 16.6934 297.702 16.4785 296.855 16.4785C295.736 16.4785 294.915 16.7812 294.395 17.3867C293.874 17.9922 293.613 18.9915 293.613 20.3848V26H291.992V15.2969H293.311L293.574 16.7617H293.652C293.984 16.2344 294.45 15.8275 295.049 15.541C295.648 15.248 296.315 15.1016 297.051 15.1016C298.34 15.1016 299.31 15.4141 299.961 16.0391C300.612 16.6576 300.938 17.6504 300.938 19.0176V26H299.316ZM307.734 24.8574C308.021 24.8574 308.298 24.8379 308.564 24.7988C308.831 24.7533 309.043 24.7077 309.199 24.6621V25.9023C309.023 25.987 308.763 26.0553 308.418 26.1074C308.079 26.166 307.773 26.1953 307.5 26.1953C305.43 26.1953 304.395 25.1048 304.395 22.9238V16.5566H302.861V15.7754L304.395 15.1016L305.078 12.8164H306.016V15.2969H309.121V16.5566H306.016V22.8555C306.016 23.5 306.169 23.9948 306.475 24.3398C306.781 24.6849 307.201 24.8574 307.734 24.8574ZM321.426 15.1016C321.901 15.1016 322.327 15.1406 322.705 15.2188L322.48 16.7227C322.038 16.625 321.647 16.5762 321.309 16.5762C320.443 16.5762 319.701 16.9277 319.082 17.6309C318.47 18.334 318.164 19.2096 318.164 20.2578V26H316.543V15.2969H317.881L318.066 17.2793H318.145C318.542 16.5827 319.02 16.0456 319.58 15.668C320.14 15.2904 320.755 15.1016 321.426 15.1016ZM333.945 20.6387C333.945 22.3835 333.506 23.7474 332.627 24.7305C331.748 25.707 330.534 26.1953 328.984 26.1953C328.027 26.1953 327.178 25.9707 326.436 25.5215C325.693 25.0723 325.12 24.4277 324.717 23.5879C324.313 22.748 324.111 21.765 324.111 20.6387C324.111 18.8939 324.548 17.5365 325.42 16.5664C326.292 15.5898 327.503 15.1016 329.053 15.1016C330.55 15.1016 331.738 15.5996 332.617 16.5957C333.503 17.5918 333.945 18.9395 333.945 20.6387ZM325.791 20.6387C325.791 22.0059 326.064 23.0475 326.611 23.7637C327.158 24.4798 327.962 24.8379 329.023 24.8379C330.085 24.8379 330.889 24.4831 331.436 23.7734C331.989 23.0573 332.266 22.0124 332.266 20.6387C332.266 19.278 331.989 18.2461 331.436 17.543C330.889 16.8333 330.078 16.4785 329.004 16.4785C327.943 16.4785 327.142 16.8268 326.602 17.5234C326.061 18.2201 325.791 19.2585 325.791 20.6387ZM341.074 26.1953C339.525 26.1953 338.324 25.7201 337.471 24.7695C336.624 23.8125 336.201 22.4616 336.201 20.7168C336.201 18.9264 336.631 17.543 337.49 16.5664C338.356 15.5898 339.587 15.1016 341.182 15.1016C341.696 15.1016 342.21 15.1569 342.725 15.2676C343.239 15.3783 343.643 15.5085 343.936 15.6582L343.438 17.0352C343.079 16.8919 342.689 16.7747 342.266 16.6836C341.842 16.5859 341.468 16.5371 341.143 16.5371C338.968 16.5371 337.881 17.9238 337.881 20.6973C337.881 22.0124 338.145 23.0215 338.672 23.7246C339.206 24.4277 339.993 24.7793 341.035 24.7793C341.927 24.7793 342.842 24.5872 343.779 24.2031V25.6387C343.063 26.0098 342.161 26.1953 341.074 26.1953ZM347.93 20.5215C348.21 20.1243 348.636 19.6035 349.209 18.959L352.666 15.2969H354.59L350.254 19.8574L354.893 26H352.93L349.15 20.9414L347.93 21.9961V26H346.328V10.8047H347.93V18.8613C347.93 19.2194 347.904 19.7728 347.852 20.5215H347.93ZM363.74 23.0801C363.74 24.0762 363.369 24.8444 362.627 25.3848C361.885 25.9251 360.843 26.1953 359.502 26.1953C358.083 26.1953 356.976 25.9707 356.182 25.5215V24.0176C356.696 24.278 357.246 24.4831 357.832 24.6328C358.424 24.7826 358.994 24.8574 359.541 24.8574C360.387 24.8574 361.038 24.724 361.494 24.457C361.95 24.1836 362.178 23.7702 362.178 23.2168C362.178 22.8001 361.995 22.4453 361.631 22.1523C361.273 21.8529 360.57 21.5013 359.521 21.0977C358.525 20.7266 357.816 20.4043 357.393 20.1309C356.976 19.8509 356.663 19.5352 356.455 19.1836C356.253 18.832 356.152 18.4121 356.152 17.9238C356.152 17.0514 356.507 16.3646 357.217 15.8633C357.926 15.3555 358.9 15.1016 360.137 15.1016C361.289 15.1016 362.415 15.3359 363.516 15.8047L362.939 17.123C361.865 16.6803 360.892 16.459 360.02 16.459C359.251 16.459 358.672 16.5794 358.281 16.8203C357.891 17.0612 357.695 17.3932 357.695 17.8164C357.695 18.1029 357.767 18.347 357.91 18.5488C358.06 18.7507 358.298 18.9427 358.623 19.125C358.949 19.3073 359.574 19.571 360.498 19.916C361.768 20.3783 362.624 20.8438 363.066 21.3125C363.516 21.7812 363.74 22.3704 363.74 23.0801ZM369.844 24.8574C370.13 24.8574 370.407 24.8379 370.674 24.7988C370.941 24.7533 371.152 24.7077 371.309 24.6621V25.9023C371.133 25.987 370.872 26.0553 370.527 26.1074C370.189 26.166 369.883 26.1953 369.609 26.1953C367.539 26.1953 366.504 25.1048 366.504 22.9238V16.5566H364.971V15.7754L366.504 15.1016L367.188 12.8164H368.125V15.2969H371.23V16.5566H368.125V22.8555C368.125 23.5 368.278 23.9948 368.584 24.3398C368.89 24.6849 369.31 24.8574 369.844 24.8574ZM380.039 26L379.717 24.4766H379.639C379.105 25.1471 378.571 25.6029 378.037 25.8438C377.51 26.0781 376.849 26.1953 376.055 26.1953C374.993 26.1953 374.16 25.9219 373.555 25.375C372.956 24.8281 372.656 24.0501 372.656 23.041C372.656 20.8796 374.385 19.7467 377.842 19.6426L379.658 19.584V18.9199C379.658 18.0801 379.476 17.4616 379.111 17.0645C378.753 16.6608 378.177 16.459 377.383 16.459C376.491 16.459 375.482 16.7324 374.355 17.2793L373.857 16.0391C374.385 15.7526 374.961 15.528 375.586 15.3652C376.217 15.2025 376.849 15.1211 377.48 15.1211C378.757 15.1211 379.701 15.4043 380.312 15.9707C380.931 16.5371 381.24 17.4453 381.24 18.6953V26H380.039ZM376.377 24.8574C377.386 24.8574 378.177 24.5807 378.75 24.0273C379.329 23.474 379.619 22.6992 379.619 21.7031V20.7363L377.998 20.8047C376.709 20.8503 375.778 21.0521 375.205 21.4102C374.639 21.7617 374.355 22.3118 374.355 23.0605C374.355 23.6465 374.531 24.0924 374.883 24.3984C375.241 24.7044 375.739 24.8574 376.377 24.8574ZM389.473 15.1016C389.948 15.1016 390.374 15.1406 390.752 15.2188L390.527 16.7227C390.085 16.625 389.694 16.5762 389.355 16.5762C388.49 16.5762 387.747 16.9277 387.129 17.6309C386.517 18.334 386.211 19.2096 386.211 20.2578V26H384.59V15.2969H385.928L386.113 17.2793H386.191C386.589 16.5827 387.067 16.0456 387.627 15.668C388.187 15.2904 388.802 15.1016 389.473 15.1016ZM393.857 22.0645V21.5371C393.857 20.7754 393.975 20.1504 394.209 19.6621C394.443 19.1673 394.88 18.6465 395.518 18.0996C396.403 17.3509 396.96 16.7878 397.188 16.4102C397.422 16.0326 397.539 15.5768 397.539 15.043C397.539 14.3789 397.324 13.8678 396.895 13.5098C396.471 13.1452 395.859 12.9629 395.059 12.9629C394.544 12.9629 394.043 13.0247 393.555 13.1484C393.066 13.2656 392.507 13.4837 391.875 13.8027L391.299 12.4844C392.529 11.8398 393.815 11.5176 395.156 11.5176C396.4 11.5176 397.367 11.8236 398.057 12.4355C398.747 13.0475 399.092 13.9102 399.092 15.0234C399.092 15.4987 399.027 15.9186 398.896 16.2832C398.773 16.6413 398.587 16.9831 398.34 17.3086C398.092 17.6276 397.559 18.1452 396.738 18.8613C396.081 19.4212 395.645 19.8867 395.43 20.2578C395.221 20.6289 395.117 21.1237 395.117 21.7422V22.0645H393.857ZM393.379 24.9648C393.379 24.0794 393.77 23.6367 394.551 23.6367C394.928 23.6367 395.218 23.7507 395.42 23.9785C395.628 24.2064 395.732 24.5352 395.732 24.9648C395.732 25.3815 395.628 25.707 395.42 25.9414C395.212 26.1693 394.922 26.2832 394.551 26.2832C394.212 26.2832 393.932 26.1823 393.711 25.9805C393.49 25.7721 393.379 25.4336 393.379 24.9648Z" fill="black"/>
<circle cx="485" cy="19" r="14" fill="#0A2640"/>
<path d="M479 17L485 23L491 17" stroke="white" stroke-width="2" stroke-linecap="round" stroke-linejoin="round"/>
</svg>
