<svg width="499" height="37" viewBox="0 0 499 37" fill="none" xmlns="http://www.w3.org/2000/svg">
<path d="M14.4238 26H12.7832L9.90234 16.4395C9.76562 16.0163 9.61263 15.4824 9.44336 14.8379C9.27409 14.1934 9.1862 13.806 9.17969 13.6758C9.03646 14.5352 8.80859 15.4759 8.49609 16.498L5.70312 26H4.0625L0.263672 11.7227H2.02148L4.27734 20.541C4.58984 21.778 4.81771 22.8978 4.96094 23.9004C5.13672 22.709 5.39714 21.5436 5.74219 20.4043L8.30078 11.7227H10.0586L12.7441 20.4824C13.0566 21.4915 13.3203 22.6309 13.5352 23.9004C13.6589 22.9759 13.8932 21.8496 14.2383 20.5215L16.4844 11.7227H18.2422L14.4238 26ZM24.7559 26.1953C23.1738 26.1953 21.9238 25.7135 21.0059 24.75C20.0944 23.7865 19.6387 22.4486 19.6387 20.7363C19.6387 19.0111 20.0618 17.6406 20.9082 16.625C21.7611 15.6094 22.9036 15.1016 24.3359 15.1016C25.6771 15.1016 26.7383 15.5443 27.5195 16.4297C28.3008 17.3086 28.6914 18.4707 28.6914 19.916V20.9414H21.3184C21.3509 22.1979 21.6667 23.1517 22.2656 23.8027C22.8711 24.4538 23.7207 24.7793 24.8145 24.7793C25.9668 24.7793 27.1061 24.5384 28.2324 24.0566V25.502C27.6595 25.7493 27.1159 25.9251 26.6016 26.0293C26.0938 26.14 25.4785 26.1953 24.7559 26.1953ZM24.3164 16.459C23.457 16.459 22.7702 16.7389 22.2559 17.2988C21.748 17.8587 21.4486 18.6335 21.3574 19.623H26.9531C26.9531 18.6009 26.7253 17.8197 26.2695 17.2793C25.8138 16.7324 25.1628 16.459 24.3164 16.459ZM40.9375 26.1953C39.388 26.1953 38.1868 25.7201 37.334 24.7695C36.4876 23.8125 36.0645 22.4616 36.0645 20.7168C36.0645 18.9264 36.4941 17.543 37.3535 16.5664C38.2194 15.5898 39.4499 15.1016 41.0449 15.1016C41.5592 15.1016 42.0736 15.1569 42.5879 15.2676C43.1022 15.3783 43.5059 15.5085 43.7988 15.6582L43.3008 17.0352C42.9427 16.8919 42.5521 16.7747 42.1289 16.6836C41.7057 16.5859 41.3314 16.5371 41.0059 16.5371C38.8314 16.5371 37.7441 17.9238 37.7441 20.6973C37.7441 22.0124 38.0078 23.0215 38.5352 23.7246C39.069 24.4277 39.8568 24.7793 40.8984 24.7793C41.7904 24.7793 42.7051 24.5872 43.6426 24.2031V25.6387C42.9264 26.0098 42.0247 26.1953 40.9375 26.1953ZM55.4297 20.6387C55.4297 22.3835 54.9902 23.7474 54.1113 24.7305C53.2324 25.707 52.0182 26.1953 50.4688 26.1953C49.5117 26.1953 48.6621 25.9707 47.9199 25.5215C47.1777 25.0723 46.6048 24.4277 46.2012 23.5879C45.7975 22.748 45.5957 21.765 45.5957 20.6387C45.5957 18.8939 46.0319 17.5365 46.9043 16.5664C47.7767 15.5898 48.9876 15.1016 50.5371 15.1016C52.0345 15.1016 53.2227 15.5996 54.1016 16.5957C54.987 17.5918 55.4297 18.9395 55.4297 20.6387ZM47.2754 20.6387C47.2754 22.0059 47.5488 23.0475 48.0957 23.7637C48.6426 24.4798 49.4466 24.8379 50.5078 24.8379C51.569 24.8379 52.373 24.4831 52.9199 23.7734C53.4733 23.0573 53.75 22.0124 53.75 20.6387C53.75 19.278 53.4733 18.2461 52.9199 17.543C52.373 16.8333 51.5625 16.4785 50.4883 16.4785C49.4271 16.4785 48.6263 16.8268 48.0859 17.5234C47.5456 18.2201 47.2754 19.2585 47.2754 20.6387ZM65.6055 26V19.0762C65.6055 18.2038 65.4069 17.5527 65.0098 17.123C64.6126 16.6934 63.9909 16.4785 63.1445 16.4785C62.0247 16.4785 61.2044 16.7812 60.6836 17.3867C60.1628 17.9922 59.9023 18.9915 59.9023 20.3848V26H58.2812V15.2969H59.5996L59.8633 16.7617H59.9414C60.2734 16.2344 60.7389 15.8275 61.3379 15.541C61.9368 15.248 62.6042 15.1016 63.3398 15.1016C64.6289 15.1016 65.599 15.4141 66.25 16.0391C66.901 16.6576 67.2266 17.6504 67.2266 19.0176V26H65.6055ZM77.8906 26V19.0762C77.8906 18.2038 77.6921 17.5527 77.2949 17.123C76.8978 16.6934 76.276 16.4785 75.4297 16.4785C74.3099 16.4785 73.4896 16.7812 72.9688 17.3867C72.4479 17.9922 72.1875 18.9915 72.1875 20.3848V26H70.5664V15.2969H71.8848L72.1484 16.7617H72.2266C72.5586 16.2344 73.0241 15.8275 73.623 15.541C74.222 15.248 74.8893 15.1016 75.625 15.1016C76.9141 15.1016 77.8841 15.4141 78.5352 16.0391C79.1862 16.6576 79.5117 17.6504 79.5117 19.0176V26H77.8906ZM87.373 26.1953C85.791 26.1953 84.541 25.7135 83.623 24.75C82.7116 23.7865 82.2559 22.4486 82.2559 20.7363C82.2559 19.0111 82.679 17.6406 83.5254 16.625C84.3783 15.6094 85.5208 15.1016 86.9531 15.1016C88.2943 15.1016 89.3555 15.5443 90.1367 16.4297C90.918 17.3086 91.3086 18.4707 91.3086 19.916V20.9414H83.9355C83.9681 22.1979 84.2839 23.1517 84.8828 23.8027C85.4883 24.4538 86.3379 24.7793 87.4316 24.7793C88.584 24.7793 89.7233 24.5384 90.8496 24.0566V25.502C90.2767 25.7493 89.7331 25.9251 89.2188 26.0293C88.7109 26.14 88.0957 26.1953 87.373 26.1953ZM86.9336 16.459C86.0742 16.459 85.3874 16.7389 84.873 17.2988C84.3652 17.8587 84.0658 18.6335 83.9746 19.623H89.5703C89.5703 18.6009 89.3424 17.8197 88.8867 17.2793C88.431 16.7324 87.7799 16.459 86.9336 16.459ZM98.3594 26.1953C96.8099 26.1953 95.6087 25.7201 94.7559 24.7695C93.9095 23.8125 93.4863 22.4616 93.4863 20.7168C93.4863 18.9264 93.916 17.543 94.7754 16.5664C95.6413 15.5898 96.8717 15.1016 98.4668 15.1016C98.9811 15.1016 99.4954 15.1569 100.01 15.2676C100.524 15.3783 100.928 15.5085 101.221 15.6582L100.723 17.0352C100.365 16.8919 99.974 16.7747 99.5508 16.6836C99.1276 16.5859 98.7533 16.5371 98.4277 16.5371C96.2533 16.5371 95.166 17.9238 95.166 20.6973C95.166 22.0124 95.4297 23.0215 95.957 23.7246C96.4909 24.4277 97.2786 24.7793 98.3203 24.7793C99.2122 24.7793 100.127 24.5872 101.064 24.2031V25.6387C100.348 26.0098 99.4466 26.1953 98.3594 26.1953ZM107.07 24.8574C107.357 24.8574 107.633 24.8379 107.9 24.7988C108.167 24.7533 108.379 24.7077 108.535 24.6621V25.9023C108.359 25.987 108.099 26.0553 107.754 26.1074C107.415 26.166 107.109 26.1953 106.836 26.1953C104.766 26.1953 103.73 25.1048 103.73 22.9238V16.5566H102.197V15.7754L103.73 15.1016L104.414 12.8164H105.352V15.2969H108.457V16.5566H105.352V22.8555C105.352 23.5 105.505 23.9948 105.811 24.3398C106.117 24.6849 106.536 24.8574 107.07 24.8574ZM125.117 20.6387C125.117 22.3835 124.678 23.7474 123.799 24.7305C122.92 25.707 121.706 26.1953 120.156 26.1953C119.199 26.1953 118.35 25.9707 117.607 25.5215C116.865 25.0723 116.292 24.4277 115.889 23.5879C115.485 22.748 115.283 21.765 115.283 20.6387C115.283 18.8939 115.719 17.5365 116.592 16.5664C117.464 15.5898 118.675 15.1016 120.225 15.1016C121.722 15.1016 122.91 15.5996 123.789 16.5957C124.674 17.5918 125.117 18.9395 125.117 20.6387ZM116.963 20.6387C116.963 22.0059 117.236 23.0475 117.783 23.7637C118.33 24.4798 119.134 24.8379 120.195 24.8379C121.257 24.8379 122.061 24.4831 122.607 23.7734C123.161 23.0573 123.438 22.0124 123.438 20.6387C123.438 19.278 123.161 18.2461 122.607 17.543C122.061 16.8333 121.25 16.4785 120.176 16.4785C119.115 16.4785 118.314 16.8268 117.773 17.5234C117.233 18.2201 116.963 19.2585 116.963 20.6387ZM129.492 15.2969V22.2402C129.492 23.1126 129.691 23.7637 130.088 24.1934C130.485 24.623 131.107 24.8379 131.953 24.8379C133.073 24.8379 133.89 24.5319 134.404 23.9199C134.925 23.3079 135.186 22.3086 135.186 20.9219V15.2969H136.807V26H135.469L135.234 24.5645H135.146C134.814 25.0918 134.352 25.4954 133.76 25.7754C133.174 26.0553 132.503 26.1953 131.748 26.1953C130.446 26.1953 129.469 25.8861 128.818 25.2676C128.174 24.6491 127.852 23.6595 127.852 22.2988V15.2969H129.492ZM145.137 15.1016C145.612 15.1016 146.038 15.1406 146.416 15.2188L146.191 16.7227C145.749 16.625 145.358 16.5762 145.02 16.5762C144.154 16.5762 143.411 16.9277 142.793 17.6309C142.181 18.334 141.875 19.2096 141.875 20.2578V26H140.254V15.2969H141.592L141.777 17.2793H141.855C142.253 16.5827 142.731 16.0456 143.291 15.668C143.851 15.2904 144.466 15.1016 145.137 15.1016ZM157.891 26.1953C156.341 26.1953 155.14 25.7201 154.287 24.7695C153.441 23.8125 153.018 22.4616 153.018 20.7168C153.018 18.9264 153.447 17.543 154.307 16.5664C155.173 15.5898 156.403 15.1016 157.998 15.1016C158.512 15.1016 159.027 15.1569 159.541 15.2676C160.055 15.3783 160.459 15.5085 160.752 15.6582L160.254 17.0352C159.896 16.8919 159.505 16.7747 159.082 16.6836C158.659 16.5859 158.285 16.5371 157.959 16.5371C155.785 16.5371 154.697 17.9238 154.697 20.6973C154.697 22.0124 154.961 23.0215 155.488 23.7246C156.022 24.4277 156.81 24.7793 157.852 24.7793C158.743 24.7793 159.658 24.5872 160.596 24.2031V25.6387C159.88 26.0098 158.978 26.1953 157.891 26.1953ZM164.668 15.2969V22.2402C164.668 23.1126 164.867 23.7637 165.264 24.1934C165.661 24.623 166.283 24.8379 167.129 24.8379C168.249 24.8379 169.066 24.5319 169.58 23.9199C170.101 23.3079 170.361 22.3086 170.361 20.9219V15.2969H171.982V26H170.645L170.41 24.5645H170.322C169.99 25.0918 169.528 25.4954 168.936 25.7754C168.35 26.0553 167.679 26.1953 166.924 26.1953C165.622 26.1953 164.645 25.8861 163.994 25.2676C163.35 24.6491 163.027 23.6595 163.027 22.2988V15.2969H164.668ZM182.334 23.0801C182.334 24.0762 181.963 24.8444 181.221 25.3848C180.479 25.9251 179.437 26.1953 178.096 26.1953C176.676 26.1953 175.57 25.9707 174.775 25.5215V24.0176C175.29 24.278 175.84 24.4831 176.426 24.6328C177.018 24.7826 177.588 24.8574 178.135 24.8574C178.981 24.8574 179.632 24.724 180.088 24.457C180.544 24.1836 180.771 23.7702 180.771 23.2168C180.771 22.8001 180.589 22.4453 180.225 22.1523C179.867 21.8529 179.163 21.5013 178.115 21.0977C177.119 20.7266 176.41 20.4043 175.986 20.1309C175.57 19.8509 175.257 19.5352 175.049 19.1836C174.847 18.832 174.746 18.4121 174.746 17.9238C174.746 17.0514 175.101 16.3646 175.811 15.8633C176.52 15.3555 177.493 15.1016 178.73 15.1016C179.883 15.1016 181.009 15.3359 182.109 15.8047L181.533 17.123C180.459 16.6803 179.486 16.459 178.613 16.459C177.845 16.459 177.266 16.5794 176.875 16.8203C176.484 17.0612 176.289 17.3932 176.289 17.8164C176.289 18.1029 176.361 18.347 176.504 18.5488C176.654 18.7507 176.891 18.9427 177.217 19.125C177.542 19.3073 178.167 19.571 179.092 19.916C180.361 20.3783 181.217 20.8438 181.66 21.3125C182.109 21.7812 182.334 22.3704 182.334 23.0801ZM188.438 24.8574C188.724 24.8574 189.001 24.8379 189.268 24.7988C189.535 24.7533 189.746 24.7077 189.902 24.6621V25.9023C189.727 25.987 189.466 26.0553 189.121 26.1074C188.783 26.166 188.477 26.1953 188.203 26.1953C186.133 26.1953 185.098 25.1048 185.098 22.9238V16.5566H183.564V15.7754L185.098 15.1016L185.781 12.8164H186.719V15.2969H189.824V16.5566H186.719V22.8555C186.719 23.5 186.872 23.9948 187.178 24.3398C187.484 24.6849 187.904 24.8574 188.438 24.8574ZM201.289 20.6387C201.289 22.3835 200.85 23.7474 199.971 24.7305C199.092 25.707 197.878 26.1953 196.328 26.1953C195.371 26.1953 194.521 25.9707 193.779 25.5215C193.037 25.0723 192.464 24.4277 192.061 23.5879C191.657 22.748 191.455 21.765 191.455 20.6387C191.455 18.8939 191.891 17.5365 192.764 16.5664C193.636 15.5898 194.847 15.1016 196.396 15.1016C197.894 15.1016 199.082 15.5996 199.961 16.5957C200.846 17.5918 201.289 18.9395 201.289 20.6387ZM193.135 20.6387C193.135 22.0059 193.408 23.0475 193.955 23.7637C194.502 24.4798 195.306 24.8379 196.367 24.8379C197.428 24.8379 198.232 24.4831 198.779 23.7734C199.333 23.0573 199.609 22.0124 199.609 20.6387C199.609 19.278 199.333 18.2461 198.779 17.543C198.232 16.8333 197.422 16.4785 196.348 16.4785C195.286 16.4785 194.486 16.8268 193.945 17.5234C193.405 18.2201 193.135 19.2585 193.135 20.6387ZM217.783 26V19.0371C217.783 18.1842 217.601 17.5462 217.236 17.123C216.872 16.6934 216.305 16.4785 215.537 16.4785C214.528 16.4785 213.783 16.7682 213.301 17.3477C212.819 17.9271 212.578 18.819 212.578 20.0234V26H210.957V19.0371C210.957 18.1842 210.775 17.5462 210.41 17.123C210.046 16.6934 209.476 16.4785 208.701 16.4785C207.686 16.4785 206.94 16.7845 206.465 17.3965C205.996 18.002 205.762 18.998 205.762 20.3848V26H204.141V15.2969H205.459L205.723 16.7617H205.801C206.107 16.2409 206.536 15.834 207.09 15.541C207.65 15.248 208.275 15.1016 208.965 15.1016C210.638 15.1016 211.732 15.707 212.246 16.918H212.324C212.643 16.3581 213.105 15.9154 213.711 15.5898C214.316 15.2643 215.007 15.1016 215.781 15.1016C216.992 15.1016 217.897 15.4141 218.496 16.0391C219.102 16.6576 219.404 17.6504 219.404 19.0176V26H217.783ZM227.275 26.1953C225.693 26.1953 224.443 25.7135 223.525 24.75C222.614 23.7865 222.158 22.4486 222.158 20.7363C222.158 19.0111 222.581 17.6406 223.428 16.625C224.281 15.6094 225.423 15.1016 226.855 15.1016C228.197 15.1016 229.258 15.5443 230.039 16.4297C230.82 17.3086 231.211 18.4707 231.211 19.916V20.9414H223.838C223.87 22.1979 224.186 23.1517 224.785 23.8027C225.391 24.4538 226.24 24.7793 227.334 24.7793C228.486 24.7793 229.626 24.5384 230.752 24.0566V25.502C230.179 25.7493 229.635 25.9251 229.121 26.0293C228.613 26.14 227.998 26.1953 227.275 26.1953ZM226.836 16.459C225.977 16.459 225.29 16.7389 224.775 17.2988C224.268 17.8587 223.968 18.6335 223.877 19.623H229.473C229.473 18.6009 229.245 17.8197 228.789 17.2793C228.333 16.7324 227.682 16.459 226.836 16.459ZM238.867 15.1016C239.342 15.1016 239.769 15.1406 240.146 15.2188L239.922 16.7227C239.479 16.625 239.089 16.5762 238.75 16.5762C237.884 16.5762 237.142 16.9277 236.523 17.6309C235.911 18.334 235.605 19.2096 235.605 20.2578V26H233.984V15.2969H235.322L235.508 17.2793H235.586C235.983 16.5827 236.462 16.0456 237.021 15.668C237.581 15.2904 238.197 15.1016 238.867 15.1016ZM249.053 23.0801C249.053 24.0762 248.682 24.8444 247.939 25.3848C247.197 25.9251 246.156 26.1953 244.814 26.1953C243.395 26.1953 242.288 25.9707 241.494 25.5215V24.0176C242.008 24.278 242.559 24.4831 243.145 24.6328C243.737 24.7826 244.307 24.8574 244.854 24.8574C245.7 24.8574 246.351 24.724 246.807 24.457C247.262 24.1836 247.49 23.7702 247.49 23.2168C247.49 22.8001 247.308 22.4453 246.943 22.1523C246.585 21.8529 245.882 21.5013 244.834 21.0977C243.838 20.7266 243.128 20.4043 242.705 20.1309C242.288 19.8509 241.976 19.5352 241.768 19.1836C241.566 18.832 241.465 18.4121 241.465 17.9238C241.465 17.0514 241.82 16.3646 242.529 15.8633C243.239 15.3555 244.212 15.1016 245.449 15.1016C246.602 15.1016 247.728 15.3359 248.828 15.8047L248.252 17.123C247.178 16.6803 246.204 16.459 245.332 16.459C244.564 16.459 243.984 16.5794 243.594 16.8203C243.203 17.0612 243.008 17.3932 243.008 17.8164C243.008 18.1029 243.079 18.347 243.223 18.5488C243.372 18.7507 243.61 18.9427 243.936 19.125C244.261 19.3073 244.886 19.571 245.811 19.916C247.08 20.3783 247.936 20.8438 248.379 21.3125C248.828 21.7812 249.053 22.3704 249.053 23.0801ZM265.635 26L263.672 19.7207C263.548 19.3366 263.317 18.4642 262.979 17.1035H262.9C262.64 18.2428 262.412 19.1217 262.217 19.7402L260.195 26H258.32L255.4 15.2969H257.1C257.79 17.9857 258.314 20.0332 258.672 21.4395C259.036 22.8457 259.245 23.793 259.297 24.2812H259.375C259.447 23.9102 259.561 23.4316 259.717 22.8457C259.88 22.2533 260.02 21.7845 260.137 21.4395L262.1 15.2969H263.857L265.771 21.4395C266.136 22.5592 266.383 23.5 266.514 24.2617H266.592C266.618 24.0273 266.686 23.666 266.797 23.1777C266.914 22.6895 267.594 20.0625 268.838 15.2969H270.518L267.559 26H265.635ZM274.082 26H272.461V15.2969H274.082V26ZM272.324 12.3965C272.324 12.0254 272.415 11.7552 272.598 11.5859C272.78 11.4102 273.008 11.3223 273.281 11.3223C273.542 11.3223 273.766 11.4102 273.955 11.5859C274.144 11.7617 274.238 12.0319 274.238 12.3965C274.238 12.7611 274.144 13.0345 273.955 13.2168C273.766 13.3926 273.542 13.4805 273.281 13.4805C273.008 13.4805 272.78 13.3926 272.598 13.2168C272.415 13.0345 272.324 12.7611 272.324 12.3965ZM280.977 24.8574C281.263 24.8574 281.54 24.8379 281.807 24.7988C282.074 24.7533 282.285 24.7077 282.441 24.6621V25.9023C282.266 25.987 282.005 26.0553 281.66 26.1074C281.322 26.166 281.016 26.1953 280.742 26.1953C278.672 26.1953 277.637 25.1048 277.637 22.9238V16.5566H276.104V15.7754L277.637 15.1016L278.32 12.8164H279.258V15.2969H282.363V16.5566H279.258V22.8555C279.258 23.5 279.411 23.9948 279.717 24.3398C280.023 24.6849 280.443 24.8574 280.977 24.8574ZM291.914 26V19.0762C291.914 18.2038 291.715 17.5527 291.318 17.123C290.921 16.6934 290.299 16.4785 289.453 16.4785C288.327 16.4785 287.503 16.7845 286.982 17.3965C286.468 18.0085 286.211 19.0111 286.211 20.4043V26H284.59V10.8047H286.211V15.4043C286.211 15.9577 286.185 16.4167 286.133 16.7812H286.23C286.549 16.2669 287.002 15.8633 287.588 15.5703C288.18 15.2708 288.854 15.1211 289.609 15.1211C290.918 15.1211 291.898 15.4336 292.549 16.0586C293.206 16.6771 293.535 17.6634 293.535 19.0176V26H291.914ZM305.527 24.8574C305.814 24.8574 306.09 24.8379 306.357 24.7988C306.624 24.7533 306.836 24.7077 306.992 24.6621V25.9023C306.816 25.987 306.556 26.0553 306.211 26.1074C305.872 26.166 305.566 26.1953 305.293 26.1953C303.223 26.1953 302.188 25.1048 302.188 22.9238V16.5566H300.654V15.7754L302.188 15.1016L302.871 12.8164H303.809V15.2969H306.914V16.5566H303.809V22.8555C303.809 23.5 303.962 23.9948 304.268 24.3398C304.574 24.6849 304.993 24.8574 305.527 24.8574ZM316.465 26V19.0762C316.465 18.2038 316.266 17.5527 315.869 17.123C315.472 16.6934 314.85 16.4785 314.004 16.4785C312.878 16.4785 312.054 16.7845 311.533 17.3965C311.019 18.0085 310.762 19.0111 310.762 20.4043V26H309.141V10.8047H310.762V15.4043C310.762 15.9577 310.736 16.4167 310.684 16.7812H310.781C311.1 16.2669 311.553 15.8633 312.139 15.5703C312.731 15.2708 313.405 15.1211 314.16 15.1211C315.469 15.1211 316.449 15.4336 317.1 16.0586C317.757 16.6771 318.086 17.6634 318.086 19.0176V26H316.465ZM325.947 26.1953C324.365 26.1953 323.115 25.7135 322.197 24.75C321.286 23.7865 320.83 22.4486 320.83 20.7363C320.83 19.0111 321.253 17.6406 322.1 16.625C322.952 15.6094 324.095 15.1016 325.527 15.1016C326.868 15.1016 327.93 15.5443 328.711 16.4297C329.492 17.3086 329.883 18.4707 329.883 19.916V20.9414H322.51C322.542 22.1979 322.858 23.1517 323.457 23.8027C324.062 24.4538 324.912 24.7793 326.006 24.7793C327.158 24.7793 328.298 24.5384 329.424 24.0566V25.502C328.851 25.7493 328.307 25.9251 327.793 26.0293C327.285 26.14 326.67 26.1953 325.947 26.1953ZM325.508 16.459C324.648 16.459 323.962 16.7389 323.447 17.2988C322.939 17.8587 322.64 18.6335 322.549 19.623H328.145C328.145 18.6009 327.917 17.8197 327.461 17.2793C327.005 16.7324 326.354 16.459 325.508 16.459ZM342.832 15.1211C344.238 15.1211 345.329 15.6029 346.104 16.5664C346.885 17.5234 347.275 18.8809 347.275 20.6387C347.275 22.3965 346.882 23.7637 346.094 24.7402C345.312 25.7103 344.225 26.1953 342.832 26.1953C342.135 26.1953 341.497 26.0684 340.918 25.8145C340.345 25.554 339.863 25.1569 339.473 24.623H339.355L339.014 26H337.852V10.8047H339.473V14.4961C339.473 15.3229 339.447 16.0651 339.395 16.7227H339.473C340.228 15.6549 341.348 15.1211 342.832 15.1211ZM342.598 16.4785C341.491 16.4785 340.693 16.7975 340.205 17.4355C339.717 18.0671 339.473 19.1348 339.473 20.6387C339.473 22.1426 339.723 23.2201 340.225 23.8711C340.726 24.5156 341.53 24.8379 342.637 24.8379C343.633 24.8379 344.375 24.4766 344.863 23.7539C345.352 23.0247 345.596 21.9798 345.596 20.6191C345.596 19.2259 345.352 18.1875 344.863 17.5039C344.375 16.8203 343.62 16.4785 342.598 16.4785ZM354.639 26.1953C353.057 26.1953 351.807 25.7135 350.889 24.75C349.977 23.7865 349.521 22.4486 349.521 20.7363C349.521 19.0111 349.945 17.6406 350.791 16.625C351.644 15.6094 352.786 15.1016 354.219 15.1016C355.56 15.1016 356.621 15.5443 357.402 16.4297C358.184 17.3086 358.574 18.4707 358.574 19.916V20.9414H351.201C351.234 22.1979 351.549 23.1517 352.148 23.8027C352.754 24.4538 353.604 24.7793 354.697 24.7793C355.85 24.7793 356.989 24.5384 358.115 24.0566V25.502C357.542 25.7493 356.999 25.9251 356.484 26.0293C355.977 26.14 355.361 26.1953 354.639 26.1953ZM354.199 16.459C353.34 16.459 352.653 16.7389 352.139 17.2988C351.631 17.8587 351.331 18.6335 351.24 19.623H356.836C356.836 18.6009 356.608 17.8197 356.152 17.2793C355.697 16.7324 355.046 16.459 354.199 16.459ZM368.252 23.0801C368.252 24.0762 367.881 24.8444 367.139 25.3848C366.396 25.9251 365.355 26.1953 364.014 26.1953C362.594 26.1953 361.488 25.9707 360.693 25.5215V24.0176C361.208 24.278 361.758 24.4831 362.344 24.6328C362.936 24.7826 363.506 24.8574 364.053 24.8574C364.899 24.8574 365.55 24.724 366.006 24.457C366.462 24.1836 366.689 23.7702 366.689 23.2168C366.689 22.8001 366.507 22.4453 366.143 22.1523C365.785 21.8529 365.081 21.5013 364.033 21.0977C363.037 20.7266 362.327 20.4043 361.904 20.1309C361.488 19.8509 361.175 19.5352 360.967 19.1836C360.765 18.832 360.664 18.4121 360.664 17.9238C360.664 17.0514 361.019 16.3646 361.729 15.8633C362.438 15.3555 363.411 15.1016 364.648 15.1016C365.801 15.1016 366.927 15.3359 368.027 15.8047L367.451 17.123C366.377 16.6803 365.404 16.459 364.531 16.459C363.763 16.459 363.184 16.5794 362.793 16.8203C362.402 17.0612 362.207 17.3932 362.207 17.8164C362.207 18.1029 362.279 18.347 362.422 18.5488C362.572 18.7507 362.809 18.9427 363.135 19.125C363.46 19.3073 364.085 19.571 365.01 19.916C366.279 20.3783 367.135 20.8438 367.578 21.3125C368.027 21.7812 368.252 22.3704 368.252 23.0801ZM374.355 24.8574C374.642 24.8574 374.919 24.8379 375.186 24.7988C375.452 24.7533 375.664 24.7077 375.82 24.6621V25.9023C375.645 25.987 375.384 26.0553 375.039 26.1074C374.701 26.166 374.395 26.1953 374.121 26.1953C372.051 26.1953 371.016 25.1048 371.016 22.9238V16.5566H369.482V15.7754L371.016 15.1016L371.699 12.8164H372.637V15.2969H375.742V16.5566H372.637V22.8555C372.637 23.5 372.79 23.9948 373.096 24.3398C373.402 24.6849 373.822 24.8574 374.355 24.8574ZM379.072 22.0645V21.5371C379.072 20.7754 379.189 20.1504 379.424 19.6621C379.658 19.1673 380.094 18.6465 380.732 18.0996C381.618 17.3509 382.174 16.7878 382.402 16.4102C382.637 16.0326 382.754 15.5768 382.754 15.043C382.754 14.3789 382.539 13.8678 382.109 13.5098C381.686 13.1452 381.074 12.9629 380.273 12.9629C379.759 12.9629 379.258 13.0247 378.77 13.1484C378.281 13.2656 377.721 13.4837 377.09 13.8027L376.514 12.4844C377.744 11.8398 379.03 11.5176 380.371 11.5176C381.615 11.5176 382.581 11.8236 383.271 12.4355C383.962 13.0475 384.307 13.9102 384.307 15.0234C384.307 15.4987 384.242 15.9186 384.111 16.2832C383.988 16.6413 383.802 16.9831 383.555 17.3086C383.307 17.6276 382.773 18.1452 381.953 18.8613C381.296 19.4212 380.859 19.8867 380.645 20.2578C380.436 20.6289 380.332 21.1237 380.332 21.7422V22.0645H379.072ZM378.594 24.9648C378.594 24.0794 378.984 23.6367 379.766 23.6367C380.143 23.6367 380.433 23.7507 380.635 23.9785C380.843 24.2064 380.947 24.5352 380.947 24.9648C380.947 25.3815 380.843 25.707 380.635 25.9414C380.426 26.1693 380.137 26.2832 379.766 26.2832C379.427 26.2832 379.147 26.1823 378.926 25.9805C378.704 25.7721 378.594 25.4336 378.594 24.9648Z" fill="black"/>
<circle cx="485" cy="19" r="14" fill="#0A2640"/>
<path d="M479 17L485 23L491 17" stroke="white" stroke-width="2" stroke-linecap="round" stroke-linejoin="round"/>
</svg>
